{
  "title": "Miss.Peregrines.Home.for.Peculiar.Children.2016.HDCAM.800MB.x264",
  "uid": 15935842,
  "size": 857011289,
  "categoryP": "video",
  "categoryS": "movies",
  "magnet": "?xt=urn:btih:5cddb06bdd3ca761e451f966a06fa69d1dde47f4&amp;dn=Miss.Peregrines.Home.for.Peculiar.Children.2016.HDCAM.800MB.x264&amp;tr=udp%3A%2F%2Ftracker.leechers-paradise.org%3A6969&amp;tr=udp%3A%2F%2Fzer0day.ch%3A1337&amp;tr=udp%3A%2F%2Fopen.demonii.com%3A1337&amp;tr=udp%3A%2F%2Ftracker.coppersurfer.tk%3A6969&amp;tr=udp%3A%2F%2Fexodus.desync.com%3A6969",
  "seeders": 189,
  "leechers": 44,
  "uploader": "makintos13",
  "files": 1,
  "time": 1475395581,
  "description": "Miss.Peregrines.Home.for.Peculiar.Children.2016.HDCAM.800MB.x264.AAC.Makintos13\r\n\r\n\r\nScreens:\r\n \nhttps://imgmak.com/atm\r\n \nhttps://imgmak.com/atu\r\n \nhttps://imgmak.com/at5\r\n \nhttps://imgmak.com/at1\r\n \nhttps://imgmak.com/atU\r\n\r\n\r\nFormat : Matroska\r\nFormat version : Version 4 / Version 2\r\nFile size : 817 MiB\r\nDuration : 2 h 0 min\r\nOverall bit rate : 950 kb/s\r\n\r\n\r\nVideo\r\nID : 1\r\nFormat : AVC\r\nFormat/Info : Advanced Video Codec\r\nFormat profile :   \r\nFormat settings, CABAC : Yes\r\nFormat settings, ReFrames : 4 frames\r\nCodec ID : V_MPEG4/ISO/AVC\r\nDuration : 2 h 0 min\r\nBit rate : 883 kb/s\r\nWidth : 640 pixels\r\nHeight : 272 pixels\r\nDisplay aspect ratio : 2.35:1\r\nFrame rate mode : Constant\r\nFrame rate : 29.970 (30000/1001) FPS\r\nColor space : YUV\r\nChroma subsampling : 4:2:0\r\nBit depth : 8 bits\r\nScan type : Progressive\r\nBits/(Pixel*Frame) : 0.169\r\nStream size : 760 MiB (93%)\r\n\r\nDefault : Yes\r\nForced : No\r\n\r\nAudio\r\nID : 2\r\nFormat : AAC\r\nFormat/Info : Advanced Audio Codec\r\nFormat profile : LC\r\nCodec ID : A_AAC\r\nDuration : 2 h 0 min\r\nBit rate : 64.4 kb/s\r\nChannel(s) : 2 channels\r\nChannel positions : Front: L R\r\nSampling rate : 48.0 kHz\r\nFrame rate : 46.875 FPS (1024 spf)\r\nCompression mode : Lossy\r\nDelay relative to video : 45 ms\r\nStream size : 55.4 MiB (7%)\r\nTitle : Stereo\r\nDefault : Yes\r\nForced : No\r\n\r\nSource : Unknown (thanks bro)",
  "parsed": {
    "xt": "urn:btih:5cddb06bdd3ca761e451f966a06fa69d1dde47f4",
    "dn": "Miss.Peregrines.Home.for.Peculiar.Children.2016.HDCAM.800MB.x264",
    "tr": [
      "udp://exodus.desync.com:6969",
      "udp://open.demonii.com:1337",
      "udp://tracker.coppersurfer.tk:6969",
      "udp://tracker.leechers-paradise.org:6969",
      "udp://zer0day.ch:1337"
    ],
    "infoHash": "5cddb06bdd3ca761e451f966a06fa69d1dde47f4",
    "infoHashBuffer": {
      "type": "Buffer",
      "data": [
        92,
        221,
        176,
        107,
        221,
        60,
        167,
        97,
        228,
        81,
        249,
        102,
        160,
        111,
        166,
        157,
        29,
        222,
        71,
        244
      ]
    },
    "name": "Miss.Peregrines.Home.for.Peculiar.Children.2016.HDCAM.800MB.x264",
    "announce": [
      "udp://exodus.desync.com:6969",
      "udp://open.demonii.com:1337",
      "udp://tracker.coppersurfer.tk:6969",
      "udp://tracker.leechers-paradise.org:6969",
      "udp://zer0day.ch:1337"
    ],
    "urlList": []
  },
  "previous": 233,
  "peers": 102,
  "last_updated": "2016-12-25T02:17:18.564Z"
}